<?xml version="1.0" encoding="utf-8" standalone="no"?>
<!DOCTYPE svg PUBLIC "-//W3C//DTD SVG 1.1//EN"
  "http://www.w3.org/Graphics/SVG/1.1/DTD/svg11.dtd">
<svg xmlns:xlink="http://www.w3.org/1999/xlink" width="535.48pt" height="276.255pt" viewBox="0 0 535.48 276.255" xmlns="http://www.w3.org/2000/svg" version="1.1">
 <metadata>
  <rdf:RDF xmlns:dc="http://purl.org/dc/elements/1.1/" xmlns:cc="http://creativecommons.org/ns#" xmlns:rdf="http://www.w3.org/1999/02/22-rdf-syntax-ns#">
   <cc:Work>
    <dc:type rdf:resource="http://purl.org/dc/dcmitype/StillImage"/>
    <dc:date>2025-05-15T17:08:00.065234</dc:date>
    <dc:format>image/svg+xml</dc:format>
    <dc:creator>
     <cc:Agent>
      <dc:title>Matplotlib v3.8.4, https://matplotlib.org/</dc:title>
     </cc:Agent>
    </dc:creator>
   </cc:Work>
  </rdf:RDF>
 </metadata>
 <defs>
  <style type="text/css">*{stroke-linejoin: round; stroke-linecap: butt}</style>
 </defs>
 <g id="figure_1">
  <g id="patch_1">
   <path d="M 0 276.255 
L 535.48 276.255 
L 535.48 0 
L 0 0 
z
" style="fill: #ffffff"/>
  </g>
  <g id="axes_1">
   <g id="patch_2">
    <path d="M 40.7625 228.96 
L 375.5625 228.96 
L 375.5625 7.2 
L 40.7625 7.2 
z
" style="fill: #ffffff"/>
   </g>
   <g id="patch_3">
    <path d="M 55.980682 228.96 
L 142.941721 228.96 
L 142.941721 69.03783 
L 55.980682 69.03783 
z
" style="fill: #4c72b0; stroke: #1a1a1a; stroke-linejoin: miter"/>
   </g>
   <g id="patch_4">
    <path d="M 164.681981 228.96 
L 251.643019 228.96 
L 251.643019 27.925762 
L 164.681981 27.925762 
z
" style="fill: url(#h1875e8804e); stroke: #1a1a1a; stroke-linejoin: miter"/>
   </g>
   <g id="patch_5">
    <path d="M 273.383279 228.96 
L 360.344318 228.96 
L 360.344318 27.36 
L 273.383279 27.36 
z
" style="fill: url(#h4dbde2a4d9); stroke: #1a1a1a; stroke-linejoin: miter"/>
   </g>
   <g id="matplotlib.axis_1">
    <g id="xtick_1">
     <g id="line2d_1">
      <defs>
       <path id="m76ddcd417b" d="M 0 0 
L 0 3.5 
" style="stroke: #000000; stroke-width: 0.8"/>
      </defs>
      <g>
       <use xlink:href="#m76ddcd417b" x="99.461201" y="228.96" style="stroke: #000000; stroke-width: 0.8"/>
      </g>
     </g>
     <g id="text_1">
      <text style="font: 16px 'Times New Roman', serif; text-anchor: middle" x="99.461201" y="247.07" transform="rotate(-0 99.461201 247.07)">CILB</text>
     </g>
    </g>
    <g id="xtick_2">
     <g id="line2d_2">
      <g>
       <use xlink:href="#m76ddcd417b" x="208.1625" y="228.96" style="stroke: #000000; stroke-width: 0.8"/>
      </g>
     </g>
     <g id="text_2">
      <text style="font: 16px 'Times New Roman', serif; text-anchor: middle" x="208.1625" y="247.07" transform="rotate(-0 208.1625 247.07)">Least-CPU</text>
     </g>
    </g>
    <g id="xtick_3">
     <g id="line2d_3">
      <g>
       <use xlink:href="#m76ddcd417b" x="316.863799" y="228.96" style="stroke: #000000; stroke-width: 0.8"/>
      </g>
     </g>
     <g id="text_3">
      <text style="font: 16px 'Times New Roman', serif; text-anchor: middle" x="316.863799" y="247.07" transform="rotate(-0 316.863799 247.07)">Round-Robin</text>
     </g>
    </g>
    <g id="text_4">
     <text style="font: 16px 'Times New Roman', serif; text-anchor: middle" x="208.1625" y="265.6025" transform="rotate(-0 208.1625 265.6025)">Load Balancing Strategy</text>
    </g>
   </g>
   <g id="matplotlib.axis_2">
    <g id="ytick_1">
     <g id="line2d_4">
      <defs>
       <path id="mcea600790c" d="M 0 0 
L -3.5 0 
" style="stroke: #000000; stroke-width: 0.8"/>
      </defs>
      <g>
       <use xlink:href="#mcea600790c" x="40.7625" y="228.96" style="stroke: #000000; stroke-width: 0.8"/>
      </g>
     </g>
     <g id="text_5">
      <text style="font: 16px 'Times New Roman', serif; text-anchor: end" x="33.7625" y="234.515" transform="rotate(-0 33.7625 234.515)">0</text>
     </g>
    </g>
    <g id="ytick_2">
     <g id="line2d_5">
      <g>
       <use xlink:href="#mcea600790c" x="40.7625" y="183.699008" style="stroke: #000000; stroke-width: 0.8"/>
      </g>
     </g>
     <g id="text_6">
      <text style="font: 16px 'Times New Roman', serif; text-anchor: end" x="33.7625" y="189.254008" transform="rotate(-0 33.7625 189.254008)">2</text>
     </g>
    </g>
    <g id="ytick_3">
     <g id="line2d_6">
      <g>
       <use xlink:href="#mcea600790c" x="40.7625" y="138.438017" style="stroke: #000000; stroke-width: 0.8"/>
      </g>
     </g>
     <g id="text_7">
      <text style="font: 16px 'Times New Roman', serif; text-anchor: end" x="33.7625" y="143.993017" transform="rotate(-0 33.7625 143.993017)">4</text>
     </g>
    </g>
    <g id="ytick_4">
     <g id="line2d_7">
      <g>
       <use xlink:href="#mcea600790c" x="40.7625" y="93.177025" style="stroke: #000000; stroke-width: 0.8"/>
      </g>
     </g>
     <g id="text_8">
      <text style="font: 16px 'Times New Roman', serif; text-anchor: end" x="33.7625" y="98.732025" transform="rotate(-0 33.7625 98.732025)">6</text>
     </g>
    </g>
    <g id="ytick_5">
     <g id="line2d_8">
      <g>
       <use xlink:href="#mcea600790c" x="40.7625" y="47.916034" style="stroke: #000000; stroke-width: 0.8"/>
      </g>
     </g>
     <g id="text_9">
      <text style="font: 16px 'Times New Roman', serif; text-anchor: end" x="33.7625" y="53.471034" transform="rotate(-0 33.7625 53.471034)">8</text>
     </g>
    </g>
    <g id="text_10">
     <text style="font: 16px 'Times New Roman', serif; text-anchor: middle" x="18.31" y="118.08" transform="rotate(-90 18.31 118.08)">Average Active Replicas</text>
    </g>
   </g>
   <g id="patch_6">
    <path d="M 40.7625 228.96 
L 40.7625 7.2 
" style="fill: none; stroke: #000000; stroke-width: 0.8; stroke-linejoin: miter; stroke-linecap: square"/>
   </g>
   <g id="patch_7">
    <path d="M 40.7625 228.96 
L 375.5625 228.96 
" style="fill: none; stroke: #000000; stroke-width: 0.8; stroke-linejoin: miter; stroke-linecap: square"/>
   </g>
   <g id="legend_1">
    <g id="patch_8">
     <path d="M 386.7625 154.41375 
L 525.08 154.41375 
Q 528.28 154.41375 528.28 151.21375 
L 528.28 84.94625 
Q 528.28 81.74625 525.08 81.74625 
L 386.7625 81.74625 
Q 383.5625 81.74625 383.5625 84.94625 
L 383.5625 151.21375 
Q 383.5625 154.41375 386.7625 154.41375 
z
" style="fill: #ffffff; opacity: 0.8; stroke: #cccccc; stroke-linejoin: miter"/>
    </g>
    <g id="patch_9">
     <path d="M 389.9625 99.34625 
L 421.9625 99.34625 
L 421.9625 88.14625 
L 389.9625 88.14625 
z
" style="fill: #4c72b0; stroke: #1a1a1a; stroke-linejoin: miter"/>
    </g>
    <g id="text_11">
     <text style="font: 16px 'Times New Roman', serif; text-anchor: start" x="434.7625" y="99.34625" transform="rotate(-0 434.7625 99.34625)">CILB</text>
    </g>
    <g id="patch_10">
     <path d="M 389.9625 121.96875 
L 421.9625 121.96875 
L 421.9625 110.76875 
L 389.9625 110.76875 
z
" style="fill: url(#h1875e8804e); stroke: #1a1a1a; stroke-linejoin: miter"/>
    </g>
    <g id="text_12">
     <text style="font: 16px 'Times New Roman', serif; text-anchor: start" x="434.7625" y="121.96875" transform="rotate(-0 434.7625 121.96875)">Least-CPU</text>
    </g>
    <g id="patch_11">
     <path d="M 389.9625 144.59125 
L 421.9625 144.59125 
L 421.9625 133.39125 
L 389.9625 133.39125 
z
" style="fill: url(#h4dbde2a4d9); stroke: #1a1a1a; stroke-linejoin: miter"/>
    </g>
    <g id="text_13">
     <text style="font: 16px 'Times New Roman', serif; text-anchor: start" x="434.7625" y="144.59125" transform="rotate(-0 434.7625 144.59125)">Round-Robin</text>
    </g>
   </g>
  </g>
 </g>
 <defs>
  <pattern id="h1875e8804e" patternUnits="userSpaceOnUse" x="0" y="0" width="72" height="72">
   <rect x="0" y="0" width="73" height="73" fill="#dd8452"/>
   <path d="M -36 36 
L 36 -36 
M -24 48 
L 48 -24 
M -12 60 
L 60 -12 
M 0 72 
L 72 0 
M 12 84 
L 84 12 
M 24 96 
L 96 24 
M 36 108 
L 108 36 
" style="fill: #1a1a1a; stroke: #1a1a1a; stroke-width: 1.0; stroke-linecap: butt; stroke-linejoin: miter"/>
  </pattern>
  <pattern id="h4dbde2a4d9" patternUnits="userSpaceOnUse" x="0" y="0" width="72" height="72">
   <rect x="0" y="0" width="73" height="73" fill="#55a868"/>
   <path d="M -36 36 
L 36 108 
M -24 24 
L 48 96 
M -12 12 
L 60 84 
M 0 0 
L 72 72 
M 12 -12 
L 84 60 
M 24 -24 
L 96 48 
M 36 -36 
L 108 36 
" style="fill: #1a1a1a; stroke: #1a1a1a; stroke-width: 1.0; stroke-linecap: butt; stroke-linejoin: miter"/>
  </pattern>
 </defs>
</svg>
