<?xml version="1.0" encoding="utf-8" standalone="no"?>
<!DOCTYPE svg PUBLIC "-//W3C//DTD SVG 1.1//EN"
  "http://www.w3.org/Graphics/SVG/1.1/DTD/svg11.dtd">
<svg xmlns:xlink="http://www.w3.org/1999/xlink" width="595.34pt" height="276.225pt" viewBox="0 0 595.34 276.225" xmlns="http://www.w3.org/2000/svg" version="1.1">
 <metadata>
  <rdf:RDF xmlns:dc="http://purl.org/dc/elements/1.1/" xmlns:cc="http://creativecommons.org/ns#" xmlns:rdf="http://www.w3.org/1999/02/22-rdf-syntax-ns#">
   <cc:Work>
    <dc:type rdf:resource="http://purl.org/dc/dcmitype/StillImage"/>
    <dc:date>2025-05-15T17:07:59.812610</dc:date>
    <dc:format>image/svg+xml</dc:format>
    <dc:creator>
     <cc:Agent>
      <dc:title>Matplotlib v3.8.4, https://matplotlib.org/</dc:title>
     </cc:Agent>
    </dc:creator>
   </cc:Work>
  </rdf:RDF>
 </metadata>
 <defs>
  <style type="text/css">*{stroke-linejoin: round; stroke-linecap: butt}</style>
 </defs>
 <g id="figure_1">
  <g id="patch_1">
   <path d="M 0 276.225 
L 595.34 276.225 
L 595.34 0 
L 0 0 
z
" style="fill: #ffffff"/>
  </g>
  <g id="axes_1">
   <g id="patch_2">
    <path d="M 64.7625 228.96 
L 399.5625 228.96 
L 399.5625 7.2 
L 64.7625 7.2 
z
" style="fill: #ffffff"/>
   </g>
   <g id="matplotlib.axis_1">
    <g id="xtick_1">
     <g id="line2d_1">
      <defs>
       <path id="m6c18e7e531" d="M 0 0 
L 0 3.5 
" style="stroke: #000000; stroke-width: 0.8"/>
      </defs>
      <g>
       <use xlink:href="#m6c18e7e531" x="79.980682" y="228.96" style="stroke: #000000; stroke-width: 0.8"/>
      </g>
     </g>
     <g id="text_1">
      <text style="font: 16px 'Times New Roman', serif; text-anchor: middle" x="79.980682" y="247.07" transform="rotate(-0 79.980682 247.07)">0</text>
     </g>
    </g>
    <g id="xtick_2">
     <g id="line2d_2">
      <g>
       <use xlink:href="#m6c18e7e531" x="182.287786" y="228.96" style="stroke: #000000; stroke-width: 0.8"/>
      </g>
     </g>
     <g id="text_2">
      <text style="font: 16px 'Times New Roman', serif; text-anchor: middle" x="182.287786" y="247.07" transform="rotate(-0 182.287786 247.07)">10</text>
     </g>
    </g>
    <g id="xtick_3">
     <g id="line2d_3">
      <g>
       <use xlink:href="#m6c18e7e531" x="284.594891" y="228.96" style="stroke: #000000; stroke-width: 0.8"/>
      </g>
     </g>
     <g id="text_3">
      <text style="font: 16px 'Times New Roman', serif; text-anchor: middle" x="284.594891" y="247.07" transform="rotate(-0 284.594891 247.07)">20</text>
     </g>
    </g>
    <g id="xtick_4">
     <g id="line2d_4">
      <g>
       <use xlink:href="#m6c18e7e531" x="386.901996" y="228.96" style="stroke: #000000; stroke-width: 0.8"/>
      </g>
     </g>
     <g id="text_4">
      <text style="font: 16px 'Times New Roman', serif; text-anchor: middle" x="386.901996" y="247.07" transform="rotate(-0 386.901996 247.07)">30</text>
     </g>
    </g>
    <g id="text_5">
     <text style="font: 16px 'Times New Roman', serif; text-anchor: middle" x="232.1625" y="265.6025" transform="rotate(-0 232.1625 265.6025)">Time (minutes)</text>
    </g>
   </g>
   <g id="matplotlib.axis_2">
    <g id="ytick_1">
     <g id="line2d_5">
      <defs>
       <path id="m650343789b" d="M 0 0 
L -3.5 0 
" style="stroke: #000000; stroke-width: 0.8"/>
      </defs>
      <g>
       <use xlink:href="#m650343789b" x="64.7625" y="228.96" style="stroke: #000000; stroke-width: 0.8"/>
      </g>
     </g>
     <g id="text_6">
      <text style="font: 16px 'Times New Roman', serif; text-anchor: end" x="57.7625" y="234.515" transform="rotate(-0 57.7625 234.515)">0</text>
     </g>
    </g>
    <g id="ytick_2">
     <g id="line2d_6">
      <g>
       <use xlink:href="#m650343789b" x="64.7625" y="178.56" style="stroke: #000000; stroke-width: 0.8"/>
      </g>
     </g>
     <g id="text_7">
      <text style="font: 16px 'Times New Roman', serif; text-anchor: end" x="57.7625" y="184.115" transform="rotate(-0 57.7625 184.115)">500</text>
     </g>
    </g>
    <g id="ytick_3">
     <g id="line2d_7">
      <g>
       <use xlink:href="#m650343789b" x="64.7625" y="128.16" style="stroke: #000000; stroke-width: 0.8"/>
      </g>
     </g>
     <g id="text_8">
      <text style="font: 16px 'Times New Roman', serif; text-anchor: end" x="57.7625" y="133.715" transform="rotate(-0 57.7625 133.715)">1000</text>
     </g>
    </g>
    <g id="ytick_4">
     <g id="line2d_8">
      <g>
       <use xlink:href="#m650343789b" x="64.7625" y="77.76" style="stroke: #000000; stroke-width: 0.8"/>
      </g>
     </g>
     <g id="text_9">
      <text style="font: 16px 'Times New Roman', serif; text-anchor: end" x="57.7625" y="83.315" transform="rotate(-0 57.7625 83.315)">1500</text>
     </g>
    </g>
    <g id="ytick_5">
     <g id="line2d_9">
      <g>
       <use xlink:href="#m650343789b" x="64.7625" y="27.36" style="stroke: #000000; stroke-width: 0.8"/>
      </g>
     </g>
     <g id="text_10">
      <text style="font: 16px 'Times New Roman', serif; text-anchor: end" x="57.7625" y="32.915" transform="rotate(-0 57.7625 32.915)">2000</text>
     </g>
    </g>
    <g id="text_11">
     <text style="font: 16px 'Times New Roman', serif; text-anchor: middle" x="18.31" y="118.08" transform="rotate(-90 18.31 118.08)">p90 Latency (ms)</text>
    </g>
   </g>
   <g id="line2d_10">
    <path d="M 79.980682 201.298809 
L 82.538359 202.382142 
L 85.096037 201.937786 
L 87.653715 202.542184 
L 90.211392 201.898436 
L 92.76907 202.832608 
L 95.326748 201.888412 
L 97.884425 201.735793 
L 100.442103 201.494021 
L 102.99978 201.534301 
L 105.557458 201.458483 
L 108.115136 203.178498 
L 110.672813 201.407899 
L 113.230491 201.294983 
L 115.788168 201.287297 
L 118.345846 201.534722 
L 120.903524 201.640574 
L 123.461201 202.389171 
L 126.018879 201.339991 
L 128.576557 202.422257 
L 131.134234 201.559186 
L 133.691912 201.294939 
L 136.249589 201.758904 
L 138.807267 201.662703 
L 141.364945 201.879399 
L 143.922622 202.204192 
L 146.4803 201.276003 
L 149.037977 202.611595 
L 151.595655 201.825867 
L 154.153333 201.499458 
L 156.71101 201.669704 
L 159.268688 201.876953 
L 161.826366 201.667763 
L 164.384043 201.568818 
L 166.941721 201.516252 
L 169.499398 201.353504 
L 172.057076 201.289226 
L 174.614754 201.806726 
L 177.172431 201.76151 
L 179.730109 201.277367 
L 182.287786 202.552137 
L 184.845464 201.350008 
L 187.403142 201.49793 
L 189.960819 202.164868 
L 192.518497 201.286869 
L 195.076175 201.322615 
L 197.633852 201.432892 
L 200.19153 201.321142 
L 202.749207 201.885224 
L 205.306885 202.01859 
L 207.864563 201.240506 
L 210.42224 202.419765 
L 212.979918 201.243464 
L 215.537595 201.955595 
L 218.095273 202.104452 
L 220.652951 202.378358 
L 223.210628 201.45152 
L 225.768306 202.733362 
L 228.325984 201.275582 
L 230.883661 201.425226 
L 233.441339 201.352407 
L 235.999016 202.301978 
L 238.556694 202.013801 
L 241.114372 201.476798 
L 243.672049 201.93084 
L 246.229727 178.830504 
L 248.787405 177.735641 
L 251.345082 176.031517 
L 253.90276 175.395293 
L 256.460437 174.68589 
L 259.018115 175.225855 
L 261.575793 171.48256 
L 264.13347 172.324132 
L 266.691148 162.835095 
L 269.248825 154.686562 
L 271.806503 146.266134 
L 274.364181 135.991317 
L 276.921858 117.886213 
L 279.479536 101.819758 
L 282.037214 85.617699 
L 284.594891 58.274795 
L 287.152569 45.053304 
L 289.710246 29.933339 
L 292.267924 27.36 
L 294.825602 27.36 
L 297.383279 27.36 
L 299.940957 27.36 
L 302.498634 27.36 
L 305.056312 27.36 
L 307.61399 27.36 
L 310.171667 27.36 
L 312.729345 27.36 
L 315.287023 27.36 
L 317.8447 27.36 
L 320.402378 27.36 
L 322.960055 27.36 
L 325.517733 27.36 
L 328.075411 27.36 
L 330.633088 27.36 
L 333.190766 27.36 
L 335.748443 27.36 
L 338.306121 27.36 
L 340.863799 27.36 
L 343.421476 27.36 
L 345.979154 27.36 
L 348.536832 27.36 
L 351.094509 27.36 
L 353.652187 27.36 
L 356.209864 27.36 
L 358.767542 27.36 
L 361.32522 27.36 
L 363.882897 27.36 
L 366.440575 27.36 
L 368.998252 27.36 
L 371.55593 27.36 
L 374.113608 27.36 
L 376.671285 27.36 
L 379.228963 27.36 
L 381.786641 27.36 
L 384.344318 27.36 
" style="fill: none; stroke: #4c72b0; stroke-width: 2; stroke-linecap: square"/>
    <defs>
     <path id="m286f19f7a4" d="M 0 5 
C 1.326016 5 2.597899 4.473168 3.535534 3.535534 
C 4.473168 2.597899 5 1.326016 5 0 
C 5 -1.326016 4.473168 -2.597899 3.535534 -3.535534 
C 2.597899 -4.473168 1.326016 -5 0 -5 
C -1.326016 -5 -2.597899 -4.473168 -3.535534 -3.535534 
C -4.473168 -2.597899 -5 -1.326016 -5 0 
C -5 1.326016 -4.473168 2.597899 -3.535534 3.535534 
C -2.597899 4.473168 -1.326016 5 0 5 
z
" style="stroke: #4c72b0"/>
    </defs>
    <g>
     <use xlink:href="#m286f19f7a4" x="79.980682" y="201.298809" style="fill: #4c72b0; stroke: #4c72b0"/>
     <use xlink:href="#m286f19f7a4" x="110.672813" y="201.407899" style="fill: #4c72b0; stroke: #4c72b0"/>
     <use xlink:href="#m286f19f7a4" x="141.364945" y="201.879399" style="fill: #4c72b0; stroke: #4c72b0"/>
     <use xlink:href="#m286f19f7a4" x="172.057076" y="201.289226" style="fill: #4c72b0; stroke: #4c72b0"/>
     <use xlink:href="#m286f19f7a4" x="202.749207" y="201.885224" style="fill: #4c72b0; stroke: #4c72b0"/>
     <use xlink:href="#m286f19f7a4" x="233.441339" y="201.352407" style="fill: #4c72b0; stroke: #4c72b0"/>
     <use xlink:href="#m286f19f7a4" x="264.13347" y="172.324132" style="fill: #4c72b0; stroke: #4c72b0"/>
     <use xlink:href="#m286f19f7a4" x="294.825602" y="27.36" style="fill: #4c72b0; stroke: #4c72b0"/>
     <use xlink:href="#m286f19f7a4" x="325.517733" y="27.36" style="fill: #4c72b0; stroke: #4c72b0"/>
     <use xlink:href="#m286f19f7a4" x="356.209864" y="27.36" style="fill: #4c72b0; stroke: #4c72b0"/>
    </g>
   </g>
   <g id="line2d_11">
    <defs>
     <path id="m096a69c6f3" d="M -4 4 
L 4 -4 
M -4 -4 
L 4 4 
" style="stroke: #4c72b0; stroke-width: 2"/>
    </defs>
    <g>
     <use xlink:href="#m096a69c6f3" x="292.267924" y="27.36" style="fill: #4c72b0; stroke: #4c72b0; stroke-width: 2"/>
     <use xlink:href="#m096a69c6f3" x="294.825602" y="27.36" style="fill: #4c72b0; stroke: #4c72b0; stroke-width: 2"/>
     <use xlink:href="#m096a69c6f3" x="297.383279" y="27.36" style="fill: #4c72b0; stroke: #4c72b0; stroke-width: 2"/>
     <use xlink:href="#m096a69c6f3" x="299.940957" y="27.36" style="fill: #4c72b0; stroke: #4c72b0; stroke-width: 2"/>
     <use xlink:href="#m096a69c6f3" x="302.498634" y="27.36" style="fill: #4c72b0; stroke: #4c72b0; stroke-width: 2"/>
     <use xlink:href="#m096a69c6f3" x="305.056312" y="27.36" style="fill: #4c72b0; stroke: #4c72b0; stroke-width: 2"/>
     <use xlink:href="#m096a69c6f3" x="307.61399" y="27.36" style="fill: #4c72b0; stroke: #4c72b0; stroke-width: 2"/>
     <use xlink:href="#m096a69c6f3" x="310.171667" y="27.36" style="fill: #4c72b0; stroke: #4c72b0; stroke-width: 2"/>
     <use xlink:href="#m096a69c6f3" x="312.729345" y="27.36" style="fill: #4c72b0; stroke: #4c72b0; stroke-width: 2"/>
     <use xlink:href="#m096a69c6f3" x="315.287023" y="27.36" style="fill: #4c72b0; stroke: #4c72b0; stroke-width: 2"/>
     <use xlink:href="#m096a69c6f3" x="317.8447" y="27.36" style="fill: #4c72b0; stroke: #4c72b0; stroke-width: 2"/>
     <use xlink:href="#m096a69c6f3" x="320.402378" y="27.36" style="fill: #4c72b0; stroke: #4c72b0; stroke-width: 2"/>
     <use xlink:href="#m096a69c6f3" x="322.960055" y="27.36" style="fill: #4c72b0; stroke: #4c72b0; stroke-width: 2"/>
     <use xlink:href="#m096a69c6f3" x="325.517733" y="27.36" style="fill: #4c72b0; stroke: #4c72b0; stroke-width: 2"/>
     <use xlink:href="#m096a69c6f3" x="328.075411" y="27.36" style="fill: #4c72b0; stroke: #4c72b0; stroke-width: 2"/>
     <use xlink:href="#m096a69c6f3" x="330.633088" y="27.36" style="fill: #4c72b0; stroke: #4c72b0; stroke-width: 2"/>
     <use xlink:href="#m096a69c6f3" x="333.190766" y="27.36" style="fill: #4c72b0; stroke: #4c72b0; stroke-width: 2"/>
     <use xlink:href="#m096a69c6f3" x="335.748443" y="27.36" style="fill: #4c72b0; stroke: #4c72b0; stroke-width: 2"/>
     <use xlink:href="#m096a69c6f3" x="338.306121" y="27.36" style="fill: #4c72b0; stroke: #4c72b0; stroke-width: 2"/>
     <use xlink:href="#m096a69c6f3" x="340.863799" y="27.36" style="fill: #4c72b0; stroke: #4c72b0; stroke-width: 2"/>
     <use xlink:href="#m096a69c6f3" x="343.421476" y="27.36" style="fill: #4c72b0; stroke: #4c72b0; stroke-width: 2"/>
     <use xlink:href="#m096a69c6f3" x="345.979154" y="27.36" style="fill: #4c72b0; stroke: #4c72b0; stroke-width: 2"/>
     <use xlink:href="#m096a69c6f3" x="348.536832" y="27.36" style="fill: #4c72b0; stroke: #4c72b0; stroke-width: 2"/>
     <use xlink:href="#m096a69c6f3" x="351.094509" y="27.36" style="fill: #4c72b0; stroke: #4c72b0; stroke-width: 2"/>
     <use xlink:href="#m096a69c6f3" x="353.652187" y="27.36" style="fill: #4c72b0; stroke: #4c72b0; stroke-width: 2"/>
     <use xlink:href="#m096a69c6f3" x="356.209864" y="27.36" style="fill: #4c72b0; stroke: #4c72b0; stroke-width: 2"/>
     <use xlink:href="#m096a69c6f3" x="358.767542" y="27.36" style="fill: #4c72b0; stroke: #4c72b0; stroke-width: 2"/>
     <use xlink:href="#m096a69c6f3" x="361.32522" y="27.36" style="fill: #4c72b0; stroke: #4c72b0; stroke-width: 2"/>
     <use xlink:href="#m096a69c6f3" x="363.882897" y="27.36" style="fill: #4c72b0; stroke: #4c72b0; stroke-width: 2"/>
     <use xlink:href="#m096a69c6f3" x="366.440575" y="27.36" style="fill: #4c72b0; stroke: #4c72b0; stroke-width: 2"/>
     <use xlink:href="#m096a69c6f3" x="368.998252" y="27.36" style="fill: #4c72b0; stroke: #4c72b0; stroke-width: 2"/>
     <use xlink:href="#m096a69c6f3" x="371.55593" y="27.36" style="fill: #4c72b0; stroke: #4c72b0; stroke-width: 2"/>
     <use xlink:href="#m096a69c6f3" x="374.113608" y="27.36" style="fill: #4c72b0; stroke: #4c72b0; stroke-width: 2"/>
     <use xlink:href="#m096a69c6f3" x="376.671285" y="27.36" style="fill: #4c72b0; stroke: #4c72b0; stroke-width: 2"/>
     <use xlink:href="#m096a69c6f3" x="379.228963" y="27.36" style="fill: #4c72b0; stroke: #4c72b0; stroke-width: 2"/>
     <use xlink:href="#m096a69c6f3" x="381.786641" y="27.36" style="fill: #4c72b0; stroke: #4c72b0; stroke-width: 2"/>
     <use xlink:href="#m096a69c6f3" x="384.344318" y="27.36" style="fill: #4c72b0; stroke: #4c72b0; stroke-width: 2"/>
    </g>
   </g>
   <g id="line2d_12">
    <path d="M 79.980682 204.546988 
L 82.538359 203.024505 
L 85.096037 205.46879 
L 87.653715 202.072868 
L 90.211392 205.365956 
L 92.76907 201.984654 
L 95.326748 201.580856 
L 97.884425 203.955223 
L 100.442103 204.815111 
L 102.99978 205.78506 
L 105.557458 203.82456 
L 108.115136 205.633796 
L 110.672813 205.775773 
L 113.230491 201.743402 
L 115.788168 204.008744 
L 118.345846 204.739396 
L 120.903524 203.429618 
L 123.461201 204.685681 
L 126.018879 206.255647 
L 128.576557 205.16351 
L 131.134234 204.081935 
L 133.691912 205.603099 
L 136.249589 201.855455 
L 138.807267 204.471942 
L 141.364945 203.499574 
L 143.922622 203.222597 
L 146.4803 201.952083 
L 149.037977 203.565365 
L 151.595655 201.812867 
L 154.153333 205.899984 
L 156.71101 203.723821 
L 159.268688 203.347272 
L 161.826366 203.306217 
L 164.384043 203.499966 
L 166.941721 201.24641 
L 169.499398 202.373006 
L 172.057076 205.154534 
L 174.614754 202.584537 
L 177.172431 203.937906 
L 179.730109 204.280203 
L 182.287786 202.9401 
L 184.845464 202.215038 
L 187.403142 205.444148 
L 189.960819 204.031049 
L 192.518497 201.498492 
L 195.076175 201.402613 
L 197.633852 203.843143 
L 200.19153 205.177152 
L 202.749207 205.96318 
L 205.306885 206.064245 
L 207.864563 201.70506 
L 210.42224 203.912842 
L 212.979918 206.045955 
L 215.537595 204.646682 
L 218.095273 203.652281 
L 220.652951 202.072244 
L 223.210628 203.536476 
L 225.768306 202.985476 
L 228.325984 202.987184 
L 230.883661 203.676019 
L 233.441339 201.707498 
L 235.999016 204.501394 
L 238.556694 203.826218 
L 241.114372 180.880858 
L 243.672049 185.270708 
L 246.229727 185.362737 
L 248.787405 183.078498 
L 251.345082 181.663345 
L 253.90276 182.512036 
L 256.460437 176.570047 
L 259.018115 178.746196 
L 261.575793 168.522872 
L 264.13347 161.931467 
L 266.691148 167.123919 
L 269.248825 154.749494 
L 271.806503 136.039701 
L 274.364181 141.755699 
L 276.921858 125.618209 
L 279.479536 75.817991 
L 282.037214 110.987022 
L 284.594891 60.268182 
L 287.152569 39.187838 
L 289.710246 27.36 
L 292.267924 27.36 
L 294.825602 27.36 
L 297.383279 27.36 
L 299.940957 27.36 
L 302.498634 27.36 
L 305.056312 27.36 
L 307.61399 27.36 
L 310.171667 27.36 
L 312.729345 27.36 
L 315.287023 27.36 
L 317.8447 27.36 
L 320.402378 27.36 
L 322.960055 27.36 
L 325.517733 27.36 
L 328.075411 27.36 
L 330.633088 27.36 
L 333.190766 27.36 
L 335.748443 27.36 
L 338.306121 27.36 
L 340.863799 27.36 
L 343.421476 27.36 
L 345.979154 27.36 
L 348.536832 27.36 
L 351.094509 27.36 
L 353.652187 27.36 
L 356.209864 27.36 
L 358.767542 27.36 
L 361.32522 27.36 
L 363.882897 27.36 
L 366.440575 27.36 
L 368.998252 27.36 
L 371.55593 27.36 
L 374.113608 27.36 
L 376.671285 27.36 
L 379.228963 27.36 
L 381.786641 27.36 
L 384.344318 27.36 
" style="fill: none; stroke-dasharray: 2,3.3; stroke-dashoffset: 0; stroke: #dd8452; stroke-width: 2"/>
    <defs>
     <path id="md158121692" d="M 0 -5 
L -5 5 
L 5 5 
z
" style="stroke: #dd8452; stroke-linejoin: miter"/>
    </defs>
    <g>
     <use xlink:href="#md158121692" x="79.980682" y="204.546988" style="fill: #dd8452; stroke: #dd8452; stroke-linejoin: miter"/>
     <use xlink:href="#md158121692" x="110.672813" y="205.775773" style="fill: #dd8452; stroke: #dd8452; stroke-linejoin: miter"/>
     <use xlink:href="#md158121692" x="141.364945" y="203.499574" style="fill: #dd8452; stroke: #dd8452; stroke-linejoin: miter"/>
     <use xlink:href="#md158121692" x="172.057076" y="205.154534" style="fill: #dd8452; stroke: #dd8452; stroke-linejoin: miter"/>
     <use xlink:href="#md158121692" x="202.749207" y="205.96318" style="fill: #dd8452; stroke: #dd8452; stroke-linejoin: miter"/>
     <use xlink:href="#md158121692" x="233.441339" y="201.707498" style="fill: #dd8452; stroke: #dd8452; stroke-linejoin: miter"/>
     <use xlink:href="#md158121692" x="264.13347" y="161.931467" style="fill: #dd8452; stroke: #dd8452; stroke-linejoin: miter"/>
     <use xlink:href="#md158121692" x="294.825602" y="27.36" style="fill: #dd8452; stroke: #dd8452; stroke-linejoin: miter"/>
     <use xlink:href="#md158121692" x="325.517733" y="27.36" style="fill: #dd8452; stroke: #dd8452; stroke-linejoin: miter"/>
     <use xlink:href="#md158121692" x="356.209864" y="27.36" style="fill: #dd8452; stroke: #dd8452; stroke-linejoin: miter"/>
    </g>
   </g>
   <g id="line2d_13">
    <defs>
     <path id="ma357beed22" d="M -4 4 
L 4 -4 
M -4 -4 
L 4 4 
" style="stroke: #dd8452; stroke-width: 2"/>
    </defs>
    <g>
     <use xlink:href="#ma357beed22" x="289.710246" y="27.36" style="fill: #dd8452; stroke: #dd8452; stroke-width: 2"/>
     <use xlink:href="#ma357beed22" x="292.267924" y="27.36" style="fill: #dd8452; stroke: #dd8452; stroke-width: 2"/>
     <use xlink:href="#ma357beed22" x="294.825602" y="27.36" style="fill: #dd8452; stroke: #dd8452; stroke-width: 2"/>
     <use xlink:href="#ma357beed22" x="297.383279" y="27.36" style="fill: #dd8452; stroke: #dd8452; stroke-width: 2"/>
     <use xlink:href="#ma357beed22" x="299.940957" y="27.36" style="fill: #dd8452; stroke: #dd8452; stroke-width: 2"/>
     <use xlink:href="#ma357beed22" x="302.498634" y="27.36" style="fill: #dd8452; stroke: #dd8452; stroke-width: 2"/>
     <use xlink:href="#ma357beed22" x="305.056312" y="27.36" style="fill: #dd8452; stroke: #dd8452; stroke-width: 2"/>
     <use xlink:href="#ma357beed22" x="307.61399" y="27.36" style="fill: #dd8452; stroke: #dd8452; stroke-width: 2"/>
     <use xlink:href="#ma357beed22" x="310.171667" y="27.36" style="fill: #dd8452; stroke: #dd8452; stroke-width: 2"/>
     <use xlink:href="#ma357beed22" x="312.729345" y="27.36" style="fill: #dd8452; stroke: #dd8452; stroke-width: 2"/>
     <use xlink:href="#ma357beed22" x="315.287023" y="27.36" style="fill: #dd8452; stroke: #dd8452; stroke-width: 2"/>
     <use xlink:href="#ma357beed22" x="317.8447" y="27.36" style="fill: #dd8452; stroke: #dd8452; stroke-width: 2"/>
     <use xlink:href="#ma357beed22" x="320.402378" y="27.36" style="fill: #dd8452; stroke: #dd8452; stroke-width: 2"/>
     <use xlink:href="#ma357beed22" x="322.960055" y="27.36" style="fill: #dd8452; stroke: #dd8452; stroke-width: 2"/>
     <use xlink:href="#ma357beed22" x="325.517733" y="27.36" style="fill: #dd8452; stroke: #dd8452; stroke-width: 2"/>
     <use xlink:href="#ma357beed22" x="328.075411" y="27.36" style="fill: #dd8452; stroke: #dd8452; stroke-width: 2"/>
     <use xlink:href="#ma357beed22" x="330.633088" y="27.36" style="fill: #dd8452; stroke: #dd8452; stroke-width: 2"/>
     <use xlink:href="#ma357beed22" x="333.190766" y="27.36" style="fill: #dd8452; stroke: #dd8452; stroke-width: 2"/>
     <use xlink:href="#ma357beed22" x="335.748443" y="27.36" style="fill: #dd8452; stroke: #dd8452; stroke-width: 2"/>
     <use xlink:href="#ma357beed22" x="338.306121" y="27.36" style="fill: #dd8452; stroke: #dd8452; stroke-width: 2"/>
     <use xlink:href="#ma357beed22" x="340.863799" y="27.36" style="fill: #dd8452; stroke: #dd8452; stroke-width: 2"/>
     <use xlink:href="#ma357beed22" x="343.421476" y="27.36" style="fill: #dd8452; stroke: #dd8452; stroke-width: 2"/>
     <use xlink:href="#ma357beed22" x="345.979154" y="27.36" style="fill: #dd8452; stroke: #dd8452; stroke-width: 2"/>
     <use xlink:href="#ma357beed22" x="348.536832" y="27.36" style="fill: #dd8452; stroke: #dd8452; stroke-width: 2"/>
     <use xlink:href="#ma357beed22" x="351.094509" y="27.36" style="fill: #dd8452; stroke: #dd8452; stroke-width: 2"/>
     <use xlink:href="#ma357beed22" x="353.652187" y="27.36" style="fill: #dd8452; stroke: #dd8452; stroke-width: 2"/>
     <use xlink:href="#ma357beed22" x="356.209864" y="27.36" style="fill: #dd8452; stroke: #dd8452; stroke-width: 2"/>
     <use xlink:href="#ma357beed22" x="358.767542" y="27.36" style="fill: #dd8452; stroke: #dd8452; stroke-width: 2"/>
     <use xlink:href="#ma357beed22" x="361.32522" y="27.36" style="fill: #dd8452; stroke: #dd8452; stroke-width: 2"/>
     <use xlink:href="#ma357beed22" x="363.882897" y="27.36" style="fill: #dd8452; stroke: #dd8452; stroke-width: 2"/>
     <use xlink:href="#ma357beed22" x="366.440575" y="27.36" style="fill: #dd8452; stroke: #dd8452; stroke-width: 2"/>
     <use xlink:href="#ma357beed22" x="368.998252" y="27.36" style="fill: #dd8452; stroke: #dd8452; stroke-width: 2"/>
     <use xlink:href="#ma357beed22" x="371.55593" y="27.36" style="fill: #dd8452; stroke: #dd8452; stroke-width: 2"/>
     <use xlink:href="#ma357beed22" x="374.113608" y="27.36" style="fill: #dd8452; stroke: #dd8452; stroke-width: 2"/>
     <use xlink:href="#ma357beed22" x="376.671285" y="27.36" style="fill: #dd8452; stroke: #dd8452; stroke-width: 2"/>
     <use xlink:href="#ma357beed22" x="379.228963" y="27.36" style="fill: #dd8452; stroke: #dd8452; stroke-width: 2"/>
     <use xlink:href="#ma357beed22" x="381.786641" y="27.36" style="fill: #dd8452; stroke: #dd8452; stroke-width: 2"/>
     <use xlink:href="#ma357beed22" x="384.344318" y="27.36" style="fill: #dd8452; stroke: #dd8452; stroke-width: 2"/>
    </g>
   </g>
   <g id="line2d_14">
    <path d="M 79.980682 205.821817 
L 82.538359 205.727368 
L 85.096037 202.28792 
L 87.653715 205.95982 
L 90.211392 201.259548 
L 92.76907 201.385765 
L 95.326748 206.222136 
L 97.884425 202.84418 
L 100.442103 204.935201 
L 102.99978 205.717777 
L 105.557458 203.993233 
L 108.115136 201.865701 
L 110.672813 203.757046 
L 113.230491 201.680356 
L 115.788168 204.775838 
L 118.345846 203.21079 
L 120.903524 202.436946 
L 123.461201 202.355723 
L 126.018879 206.277118 
L 128.576557 206.181837 
L 131.134234 201.851242 
L 133.691912 204.730129 
L 136.249589 201.854832 
L 138.807267 205.848307 
L 141.364945 205.931169 
L 143.922622 202.420194 
L 146.4803 203.884577 
L 149.037977 204.944115 
L 151.595655 204.147385 
L 154.153333 203.561948 
L 156.71101 205.266199 
L 159.268688 201.264447 
L 161.826366 204.071976 
L 164.384043 205.670139 
L 166.941721 204.576049 
L 169.499398 205.120222 
L 172.057076 205.922195 
L 174.614754 205.126133 
L 177.172431 201.947438 
L 179.730109 205.080457 
L 182.287786 205.200246 
L 184.845464 201.565008 
L 187.403142 203.897738 
L 189.960819 202.210215 
L 192.518497 205.791469 
L 195.076175 204.145164 
L 197.633852 202.605458 
L 200.19153 201.319807 
L 202.749207 204.250789 
L 205.306885 201.93717 
L 207.864563 205.321347 
L 210.42224 204.153717 
L 212.979918 205.020976 
L 215.537595 204.046621 
L 218.095273 203.50636 
L 220.652951 201.243616 
L 223.210628 201.396259 
L 225.768306 202.002573 
L 228.325984 203.832369 
L 230.883661 204.258757 
L 233.441339 201.397705 
L 235.999016 201.56908 
L 238.556694 201.576373 
L 241.114372 201.717104 
L 243.672049 186.717309 
L 246.229727 180.130172 
L 248.787405 177.388729 
L 251.345082 180.519775 
L 253.90276 178.347759 
L 256.460437 176.754454 
L 259.018115 176.794976 
L 261.575793 169.876555 
L 264.13347 168.831107 
L 266.691148 160.343049 
L 269.248825 159.839179 
L 271.806503 151.50367 
L 274.364181 132.5213 
L 276.921858 110.108043 
L 279.479536 102.859683 
L 282.037214 92.045973 
L 284.594891 69.30295 
L 287.152569 61.91908 
L 289.710246 27.36 
L 292.267924 27.36 
L 294.825602 27.36 
L 297.383279 27.36 
L 299.940957 27.36 
L 302.498634 27.36 
L 305.056312 27.36 
L 307.61399 27.36 
L 310.171667 27.36 
L 312.729345 27.36 
L 315.287023 27.36 
L 317.8447 27.36 
L 320.402378 27.36 
L 322.960055 27.36 
L 325.517733 27.36 
L 328.075411 27.36 
L 330.633088 27.36 
L 333.190766 27.36 
L 335.748443 27.36 
L 338.306121 27.36 
L 340.863799 27.36 
L 343.421476 27.36 
L 345.979154 27.36 
L 348.536832 27.36 
L 351.094509 27.36 
L 353.652187 27.36 
L 356.209864 27.36 
L 358.767542 27.36 
L 361.32522 27.36 
L 363.882897 27.36 
L 366.440575 27.36 
L 368.998252 27.36 
L 371.55593 27.36 
L 374.113608 27.36 
L 376.671285 27.36 
L 379.228963 27.36 
L 381.786641 27.36 
L 384.344318 27.36 
" style="fill: none; stroke-dasharray: 7.4,3.2; stroke-dashoffset: 0; stroke: #55a868; stroke-width: 2"/>
    <defs>
     <path id="md558255860" d="M -5 5 
L 5 5 
L 5 -5 
L -5 -5 
z
" style="stroke: #55a868; stroke-linejoin: miter"/>
    </defs>
    <g>
     <use xlink:href="#md558255860" x="79.980682" y="205.821817" style="fill: #55a868; stroke: #55a868; stroke-linejoin: miter"/>
     <use xlink:href="#md558255860" x="110.672813" y="203.757046" style="fill: #55a868; stroke: #55a868; stroke-linejoin: miter"/>
     <use xlink:href="#md558255860" x="141.364945" y="205.931169" style="fill: #55a868; stroke: #55a868; stroke-linejoin: miter"/>
     <use xlink:href="#md558255860" x="172.057076" y="205.922195" style="fill: #55a868; stroke: #55a868; stroke-linejoin: miter"/>
     <use xlink:href="#md558255860" x="202.749207" y="204.250789" style="fill: #55a868; stroke: #55a868; stroke-linejoin: miter"/>
     <use xlink:href="#md558255860" x="233.441339" y="201.397705" style="fill: #55a868; stroke: #55a868; stroke-linejoin: miter"/>
     <use xlink:href="#md558255860" x="264.13347" y="168.831107" style="fill: #55a868; stroke: #55a868; stroke-linejoin: miter"/>
     <use xlink:href="#md558255860" x="294.825602" y="27.36" style="fill: #55a868; stroke: #55a868; stroke-linejoin: miter"/>
     <use xlink:href="#md558255860" x="325.517733" y="27.36" style="fill: #55a868; stroke: #55a868; stroke-linejoin: miter"/>
     <use xlink:href="#md558255860" x="356.209864" y="27.36" style="fill: #55a868; stroke: #55a868; stroke-linejoin: miter"/>
    </g>
   </g>
   <g id="line2d_15">
    <defs>
     <path id="mbb7eb17c1a" d="M -4 4 
L 4 -4 
M -4 -4 
L 4 4 
" style="stroke: #55a868; stroke-width: 2"/>
    </defs>
    <g>
     <use xlink:href="#mbb7eb17c1a" x="289.710246" y="27.36" style="fill: #55a868; stroke: #55a868; stroke-width: 2"/>
     <use xlink:href="#mbb7eb17c1a" x="292.267924" y="27.36" style="fill: #55a868; stroke: #55a868; stroke-width: 2"/>
     <use xlink:href="#mbb7eb17c1a" x="294.825602" y="27.36" style="fill: #55a868; stroke: #55a868; stroke-width: 2"/>
     <use xlink:href="#mbb7eb17c1a" x="297.383279" y="27.36" style="fill: #55a868; stroke: #55a868; stroke-width: 2"/>
     <use xlink:href="#mbb7eb17c1a" x="299.940957" y="27.36" style="fill: #55a868; stroke: #55a868; stroke-width: 2"/>
     <use xlink:href="#mbb7eb17c1a" x="302.498634" y="27.36" style="fill: #55a868; stroke: #55a868; stroke-width: 2"/>
     <use xlink:href="#mbb7eb17c1a" x="305.056312" y="27.36" style="fill: #55a868; stroke: #55a868; stroke-width: 2"/>
     <use xlink:href="#mbb7eb17c1a" x="307.61399" y="27.36" style="fill: #55a868; stroke: #55a868; stroke-width: 2"/>
     <use xlink:href="#mbb7eb17c1a" x="310.171667" y="27.36" style="fill: #55a868; stroke: #55a868; stroke-width: 2"/>
     <use xlink:href="#mbb7eb17c1a" x="312.729345" y="27.36" style="fill: #55a868; stroke: #55a868; stroke-width: 2"/>
     <use xlink:href="#mbb7eb17c1a" x="315.287023" y="27.36" style="fill: #55a868; stroke: #55a868; stroke-width: 2"/>
     <use xlink:href="#mbb7eb17c1a" x="317.8447" y="27.36" style="fill: #55a868; stroke: #55a868; stroke-width: 2"/>
     <use xlink:href="#mbb7eb17c1a" x="320.402378" y="27.36" style="fill: #55a868; stroke: #55a868; stroke-width: 2"/>
     <use xlink:href="#mbb7eb17c1a" x="322.960055" y="27.36" style="fill: #55a868; stroke: #55a868; stroke-width: 2"/>
     <use xlink:href="#mbb7eb17c1a" x="325.517733" y="27.36" style="fill: #55a868; stroke: #55a868; stroke-width: 2"/>
     <use xlink:href="#mbb7eb17c1a" x="328.075411" y="27.36" style="fill: #55a868; stroke: #55a868; stroke-width: 2"/>
     <use xlink:href="#mbb7eb17c1a" x="330.633088" y="27.36" style="fill: #55a868; stroke: #55a868; stroke-width: 2"/>
     <use xlink:href="#mbb7eb17c1a" x="333.190766" y="27.36" style="fill: #55a868; stroke: #55a868; stroke-width: 2"/>
     <use xlink:href="#mbb7eb17c1a" x="335.748443" y="27.36" style="fill: #55a868; stroke: #55a868; stroke-width: 2"/>
     <use xlink:href="#mbb7eb17c1a" x="338.306121" y="27.36" style="fill: #55a868; stroke: #55a868; stroke-width: 2"/>
     <use xlink:href="#mbb7eb17c1a" x="340.863799" y="27.36" style="fill: #55a868; stroke: #55a868; stroke-width: 2"/>
     <use xlink:href="#mbb7eb17c1a" x="343.421476" y="27.36" style="fill: #55a868; stroke: #55a868; stroke-width: 2"/>
     <use xlink:href="#mbb7eb17c1a" x="345.979154" y="27.36" style="fill: #55a868; stroke: #55a868; stroke-width: 2"/>
     <use xlink:href="#mbb7eb17c1a" x="348.536832" y="27.36" style="fill: #55a868; stroke: #55a868; stroke-width: 2"/>
     <use xlink:href="#mbb7eb17c1a" x="351.094509" y="27.36" style="fill: #55a868; stroke: #55a868; stroke-width: 2"/>
     <use xlink:href="#mbb7eb17c1a" x="353.652187" y="27.36" style="fill: #55a868; stroke: #55a868; stroke-width: 2"/>
     <use xlink:href="#mbb7eb17c1a" x="356.209864" y="27.36" style="fill: #55a868; stroke: #55a868; stroke-width: 2"/>
     <use xlink:href="#mbb7eb17c1a" x="358.767542" y="27.36" style="fill: #55a868; stroke: #55a868; stroke-width: 2"/>
     <use xlink:href="#mbb7eb17c1a" x="361.32522" y="27.36" style="fill: #55a868; stroke: #55a868; stroke-width: 2"/>
     <use xlink:href="#mbb7eb17c1a" x="363.882897" y="27.36" style="fill: #55a868; stroke: #55a868; stroke-width: 2"/>
     <use xlink:href="#mbb7eb17c1a" x="366.440575" y="27.36" style="fill: #55a868; stroke: #55a868; stroke-width: 2"/>
     <use xlink:href="#mbb7eb17c1a" x="368.998252" y="27.36" style="fill: #55a868; stroke: #55a868; stroke-width: 2"/>
     <use xlink:href="#mbb7eb17c1a" x="371.55593" y="27.36" style="fill: #55a868; stroke: #55a868; stroke-width: 2"/>
     <use xlink:href="#mbb7eb17c1a" x="374.113608" y="27.36" style="fill: #55a868; stroke: #55a868; stroke-width: 2"/>
     <use xlink:href="#mbb7eb17c1a" x="376.671285" y="27.36" style="fill: #55a868; stroke: #55a868; stroke-width: 2"/>
     <use xlink:href="#mbb7eb17c1a" x="379.228963" y="27.36" style="fill: #55a868; stroke: #55a868; stroke-width: 2"/>
     <use xlink:href="#mbb7eb17c1a" x="381.786641" y="27.36" style="fill: #55a868; stroke: #55a868; stroke-width: 2"/>
     <use xlink:href="#mbb7eb17c1a" x="384.344318" y="27.36" style="fill: #55a868; stroke: #55a868; stroke-width: 2"/>
    </g>
   </g>
   <g id="line2d_16">
    <path d="M 64.7625 27.36 
L 399.5625 27.36 
" clip-path="url(#pd417a7017a)" style="fill: none; stroke-dasharray: 7.4,3.2; stroke-dashoffset: 0; stroke: #ff0000; stroke-width: 2"/>
   </g>
   <g id="patch_3">
    <path d="M 64.7625 228.96 
L 64.7625 7.2 
" style="fill: none; stroke: #000000; stroke-width: 0.8; stroke-linejoin: miter; stroke-linecap: square"/>
   </g>
   <g id="patch_4">
    <path d="M 64.7625 228.96 
L 399.5625 228.96 
" style="fill: none; stroke: #000000; stroke-width: 0.8; stroke-linejoin: miter; stroke-linecap: square"/>
   </g>
   <g id="legend_1">
    <g id="patch_5">
     <path d="M 410.7625 165.725 
L 584.94 165.725 
Q 588.14 165.725 588.14 162.525 
L 588.14 73.635 
Q 588.14 70.435 584.94 70.435 
L 410.7625 70.435 
Q 407.5625 70.435 407.5625 73.635 
L 407.5625 162.525 
Q 407.5625 165.725 410.7625 165.725 
z
" style="fill: #ffffff; opacity: 0.8; stroke: #cccccc; stroke-linejoin: miter"/>
    </g>
    <g id="line2d_17">
     <path d="M 413.9625 82.435 
L 429.9625 82.435 
L 445.9625 82.435 
" style="fill: none; stroke: #4c72b0; stroke-width: 2; stroke-linecap: square"/>
     <g>
      <use xlink:href="#m286f19f7a4" x="429.9625" y="82.435" style="fill: #4c72b0; stroke: #4c72b0"/>
     </g>
    </g>
    <g id="text_12">
     <text style="font: 16px 'Times New Roman', serif; text-anchor: start" x="458.7625" y="88.035" transform="rotate(-0 458.7625 88.035)">Round-Robin</text>
    </g>
    <g id="line2d_18">
     <path d="M 413.9625 105.0575 
L 429.9625 105.0575 
L 445.9625 105.0575 
" style="fill: none; stroke-dasharray: 2,3.3; stroke-dashoffset: 0; stroke: #dd8452; stroke-width: 2"/>
     <g>
      <use xlink:href="#md158121692" x="429.9625" y="105.0575" style="fill: #dd8452; stroke: #dd8452; stroke-linejoin: miter"/>
     </g>
    </g>
    <g id="text_13">
     <text style="font: 16px 'Times New Roman', serif; text-anchor: start" x="458.7625" y="110.6575" transform="rotate(-0 458.7625 110.6575)">Least-CPU</text>
    </g>
    <g id="line2d_19">
     <path d="M 413.9625 127.68 
L 429.9625 127.68 
L 445.9625 127.68 
" style="fill: none; stroke-dasharray: 7.4,3.2; stroke-dashoffset: 0; stroke: #55a868; stroke-width: 2"/>
     <g>
      <use xlink:href="#md558255860" x="429.9625" y="127.68" style="fill: #55a868; stroke: #55a868; stroke-linejoin: miter"/>
     </g>
    </g>
    <g id="text_14">
     <text style="font: 16px 'Times New Roman', serif; text-anchor: start" x="458.7625" y="133.28" transform="rotate(-0 458.7625 133.28)">CILB</text>
    </g>
    <g id="line2d_20">
     <path d="M 413.9625 150.3025 
L 429.9625 150.3025 
L 445.9625 150.3025 
" style="fill: none; stroke-dasharray: 7.4,3.2; stroke-dashoffset: 0; stroke: #ff0000; stroke-width: 2"/>
    </g>
    <g id="text_15">
     <text style="font: 16px 'Times New Roman', serif; text-anchor: start" x="458.7625" y="155.9025" transform="rotate(-0 458.7625 155.9025)">Timeout (2000 ms)</text>
    </g>
   </g>
  </g>
 </g>
 <defs>
  <clipPath id="pd417a7017a">
   <rect x="64.7625" y="7.2" width="334.8" height="221.76"/>
  </clipPath>
 </defs>
</svg>
